<svg width="31" height="30" viewBox="0 0 31 30" fill="none" xmlns="http://www.w3.org/2000/svg">
<g id="a" clip-path="url(#clip0_643_2888)">
<path id="Vector" d="M2.73529 30C1.58315 30 0.762566 29.4584 0.273528 28.375C-0.215509 27.2917 -0.0580224 26.3084 0.745988 25.4167L11.0241 13.75V2.50003H8.86898C8.51256 2.50003 8.22246 2.38337 7.98208 2.1417C7.74171 1.90003 7.62567 1.60003 7.62567 1.2417C7.62567 0.883366 7.74171 0.591699 7.98208 0.350033C8.22246 0.108366 8.51256 -0.00830078 8.86898 -0.00830078H22.131C22.4874 -0.00830078 22.7775 0.108366 23.0179 0.350033C23.2583 0.591699 23.3743 0.891699 23.3743 1.25003C23.3743 1.60837 23.2583 1.90003 23.0179 2.1417C22.7775 2.38337 22.4874 2.50003 22.131 2.50003H19.9759V13.75L30.254 25.4167C31.058 26.3084 31.2155 27.2917 30.7265 28.375C30.2374 29.4584 29.4168 30 28.2647 30H2.73529ZM2.23797 27.5H28.762L17.4893 14.6667V2.50003H13.5107V14.6667L2.23797 27.5Z" fill="#A8A8A8"/>
</g>
<defs>
<clipPath id="clip0_643_2888">
<rect width="31" height="30" fill="white"/>
</clipPath>
</defs>
</svg>
