<svg width="20" height="20" viewBox="0 0 24 24" fill="none" xmlns="http://www.w3.org/2000/svg">
<g id="Star">
<path id="icon" d="M11.081 4.64069C11.4211 3.78644 12.5794 3.78644 12.9195 4.64069L14.4001 8.35972C14.5434 8.71985 14.8676 8.96591 15.2398 8.99708L19.0828 9.31896C19.9655 9.39289 20.3235 10.5438 19.6509 11.1457L16.7229 13.7661C16.4394 14.0198 16.3156 14.4179 16.4022 14.7973L17.2968 18.7153C17.5022 19.6152 16.5651 20.3265 15.8094 19.8443L12.5192 17.7447C12.2006 17.5414 11.7999 17.5414 11.4813 17.7447L8.1911 19.8443C7.43535 20.3265 6.49826 19.6152 6.70373 18.7153L7.59828 14.7973C7.68491 14.4179 7.56109 14.0198 7.27755 13.7661L4.34955 11.1457C3.677 10.5438 4.03494 9.39289 4.91768 9.31896L8.76073 8.99708C9.13287 8.96591 9.45704 8.71985 9.60041 8.35972L11.081 4.64069Z" stroke="#E26F20" stroke-width="1.5" stroke-linecap="round" stroke-linejoin="round"/>
</g>
</svg>
