<svg width="31" height="32" viewBox="0 0 31 32" fill="none" xmlns="http://www.w3.org/2000/svg">
<g id="Group">
<g id="Group_2">
<g id="Group_3">
<g id="Group_4">
<path id="Vector" d="M11.4782 20C11.4782 20.735 11.2719 21.365 10.7563 21.785C10.2407 22.205 9.62192 22.415 8.79692 22.415H7.8688V24.83H6.42505V17.48H8.79692C9.62192 17.48 10.3438 17.69 10.7563 18.11C11.1688 18.53 11.4782 19.16 11.4782 20ZM10.0344 20C10.0344 19.685 9.9313 19.37 9.72505 19.16C9.5188 18.95 9.20942 18.845 8.79692 18.845H7.8688V21.26H8.79692C9.20942 21.26 9.5188 21.155 9.72505 20.945C9.9313 20.63 10.0344 20.315 10.0344 20Z" fill="#E8E3E3"/>
</g>
<g id="Group_5">
<path id="Vector_2" d="M18.8001 21.155C18.8001 22.415 18.4907 23.255 17.8719 23.885C17.2532 24.515 16.325 24.83 15.0875 24.83H12.6125V17.48H15.0875C16.2219 17.48 17.0469 17.795 17.7688 18.425C18.4907 19.16 18.8001 20 18.8001 21.155ZM17.3563 21.155C17.3563 20.42 17.1501 19.895 16.7376 19.475C16.3251 19.055 15.8094 18.845 15.0875 18.845H13.85V23.675H14.8813C16.6344 23.57 17.3563 22.835 17.3563 21.155Z" fill="#E8E3E3"/>
</g>
<g id="Group_6">
<path id="Vector_3" d="M24.575 17.48V18.74H21.4812V20.42H24.4719V21.68H21.4812V24.83H20.1406V17.48H24.575Z" fill="#E8E3E3"/>
</g>
</g>
<g id="Group_7">
<path id="Vector_4" d="M25.8125 16.64H5.1875C4.87812 16.64 4.67188 16.43 4.67188 16.115V1.09998C4.67188 0.784982 4.87812 0.574982 5.1875 0.574982H17.5625C17.6656 0.574982 17.8719 0.679982 17.975 0.679982L26.225 9.18498C26.3281 9.28998 26.3281 9.39498 26.3281 9.60498V16.115C26.3281 16.325 26.1219 16.64 25.8125 16.64ZM5.70312 15.59H25.2969V9.81498L17.3562 1.62498H5.70312V15.59Z" fill="#E8E3E3"/>
</g>
<g id="Group_8">
<path id="Vector_5" d="M25.8125 31.025H5.1875C4.87812 31.025 4.67188 30.815 4.67188 30.5V26.3C4.67188 25.985 4.87812 25.775 5.1875 25.775H25.8125C26.1219 25.775 26.3281 25.985 26.3281 26.3V30.5C26.3281 30.815 26.1219 31.025 25.8125 31.025ZM5.70312 29.975H25.2969V26.825H5.70312V29.975Z" fill="#E8E3E3"/>
</g>
<g id="Group_9">
<path id="Vector_6" d="M25.8125 10.13H17.5625C17.2531 10.13 17.0469 9.91999 17.0469 9.60499V1.09999C17.0469 0.889987 17.15 0.679987 17.3562 0.574987C17.5625 0.469987 17.7687 0.574987 17.8719 0.679987L26.0188 9.07999C26.1219 9.18499 26.225 9.28999 26.225 9.49999C26.3281 9.91999 26.1219 10.13 25.8125 10.13ZM18.0781 9.07999H24.575L18.0781 2.35999V9.07999Z" fill="#E8E3E3"/>
</g>
<g id="Group_10">
<path id="Vector_7" d="M29.9375 26.825H1.0625C0.753125 26.825 0.546875 26.615 0.546875 26.3V16.01C0.546875 15.695 0.753125 15.485 1.0625 15.485H29.9375C30.2469 15.485 30.4531 15.695 30.4531 16.01V26.3C30.4531 26.615 30.2469 26.825 29.9375 26.825ZM1.57812 25.775H29.4219V16.535H1.57812V25.775Z" fill="#E8E3E3"/>
</g>
</g>
</g>
</svg>
