<svg width="24" height="27" viewBox="0 0 24 27" fill="none" xmlns="http://www.w3.org/2000/svg">
<g id="Group 968">
<g id="Group">
<path id="Vector" d="M0.880734 5.72477H2.47883L3.74532 24.7191C3.77571 25.1819 4.16015 25.5413 4.62385 25.5413H12.7244C12.3175 25.0036 11.9846 24.4126 11.7362 23.7798H5.44778L4.24426 5.72477H7.70642H15.633H19.0952L18.5641 13.6915C19.1665 13.7298 19.7522 13.8284 20.3088 13.994L20.8606 5.72477H22.4587C22.9449 5.72477 23.3394 5.3302 23.3394 4.84404C23.3394 4.35787 22.9449 3.9633 22.4587 3.9633H20.0367H16.5138V0.880734C16.5138 0.394569 16.1192 0 15.633 0H7.70642C7.22026 0 6.82569 0.394569 6.82569 0.880734V3.9633H3.30275H0.880734C0.394569 3.9633 0 4.35787 0 4.84404C0 5.3302 0.394569 5.72477 0.880734 5.72477ZM8.58716 1.76147H14.7523V3.9633H8.58716V1.76147Z" fill="#949496"/>
<path id="Vector_2" d="M18.1021 26.4221C21.3542 26.4221 24 23.8539 24 20.6974C24 17.5408 21.3542 14.9726 18.1021 14.9726C14.85 14.9726 12.2039 17.5408 12.2039 20.6974C12.2039 23.8539 14.8505 26.4221 18.1021 26.4221ZM18.1021 16.7341C20.3828 16.7341 22.2385 18.5123 22.2385 20.6974C22.2385 22.8825 20.3828 24.6607 18.1021 24.6607C15.821 24.6607 13.9653 22.8825 13.9653 20.6974C13.9653 18.5123 15.8215 16.7341 18.1021 16.7341Z" fill="#949496"/>
<path id="Vector_3" d="M16.2338 22.5656C16.406 22.7378 16.631 22.8236 16.8565 22.8236C17.0819 22.8236 17.307 22.7378 17.4791 22.5656L18.1023 21.9425L18.7254 22.5656C18.8976 22.7378 19.1226 22.8236 19.348 22.8236C19.5735 22.8236 19.7985 22.7378 19.9707 22.5656C20.3147 22.2216 20.3147 21.6641 19.9707 21.3202L19.3476 20.6971L19.9707 20.074C20.3147 19.7301 20.3147 19.1726 19.9707 18.8286C19.6268 18.4847 19.0693 18.4847 18.7254 18.8286L18.1023 19.4517L17.4791 18.8286C17.1352 18.4847 16.5777 18.4847 16.2338 18.8286C15.8898 19.1726 15.8898 19.7301 16.2338 20.074L16.8569 20.6971L16.2338 21.3202C15.8898 21.6637 15.8898 22.2216 16.2338 22.5656Z" fill="#949496"/>
</g>
</g>
</svg>
