<svg width="31" height="34" viewBox="0 0 31 34" fill="none" xmlns="http://www.w3.org/2000/svg">
<g id="Group">
<path id="Vector" d="M27.0397 19.2881V10.588L17.6474 1.00018H3.64062V19.2881" stroke="#E8E3E3" stroke-miterlimit="10"/>
<path id="Vector_2" d="M3.64062 29.5136V33.0449H27.0397V29.5136" stroke="#E8E3E3" stroke-miterlimit="10"/>
<path id="Vector_3" d="M17.6472 1.00018V10.3925H27.0395" stroke="#E8E3E3" stroke-miterlimit="10"/>
<path id="Vector_4" d="M29.68 19.288H1V29.5134H29.68V19.288Z" stroke="#E8E3E3" stroke-miterlimit="10"/>
<path id="Vector_5" d="M8.39258 26.9435V22.3964H10.1839C11.6099 22.3964 12.5968 23.3032 12.5968 24.6747C12.5968 26.0463 11.6099 26.9435 10.1839 26.9435H8.39258ZM11.597 24.6747C11.6109 24.4839 11.5835 24.2924 11.5167 24.1131C11.45 23.9338 11.3454 23.771 11.2101 23.6357C11.0748 23.5004 10.912 23.3958 10.7327 23.3291C10.5534 23.2623 10.3619 23.2349 10.1711 23.2488H9.36033V26.0911H10.1839C10.3727 26.1002 10.5614 26.0698 10.7379 26.002C10.9143 25.9341 11.0747 25.8303 11.2089 25.697C11.343 25.5638 11.4479 25.4041 11.517 25.2281C11.586 25.0521 11.6176 24.8636 11.6099 24.6747H11.597Z" fill="white"/>
<path id="Vector_6" d="M13.0679 24.6748C13.0566 24.3604 13.1104 24.047 13.2258 23.7544C13.3413 23.4617 13.516 23.196 13.7389 22.974C13.9618 22.752 14.2282 22.5784 14.5213 22.4642C14.8144 22.3499 15.128 22.2974 15.4424 22.3099C15.7584 22.2983 16.0734 22.3504 16.3688 22.4633C16.6642 22.5761 16.9337 22.7474 17.1614 22.9668C17.389 23.1862 17.5701 23.4493 17.6938 23.7403C17.8175 24.0313 17.8813 24.3442 17.8813 24.6604C17.8813 24.9766 17.8175 25.2895 17.6938 25.5805C17.5701 25.8715 17.389 26.1346 17.1614 26.354C16.9337 26.5734 16.6642 26.7447 16.3688 26.8575C16.0734 26.9704 15.7584 27.0226 15.4424 27.0109C15.1304 27.0237 14.8191 26.9723 14.5278 26.86C14.2364 26.7476 13.9713 26.5766 13.7487 26.3577C13.5261 26.1387 13.3508 25.8763 13.2337 25.5869C13.1166 25.2974 13.0602 24.987 13.0679 24.6748ZM16.8235 24.6748C16.8235 23.8224 16.2788 23.1815 15.4424 23.1815C14.606 23.1815 14.0645 23.8224 14.0645 24.6748C14.0645 25.5272 14.6188 26.1553 15.4424 26.1553C16.2659 26.1553 16.8235 25.5144 16.8235 24.6748Z" fill="white"/>
<path id="Vector_7" d="M18.2849 24.6748C18.277 24.3571 18.3347 24.0413 18.4545 23.747C18.5742 23.4527 18.7533 23.1862 18.9807 22.9643C19.208 22.7423 19.4787 22.5697 19.7759 22.4571C20.073 22.3445 20.3901 22.2944 20.7075 22.3099C21.0971 22.2982 21.4821 22.3963 21.8186 22.5929C22.1552 22.7895 22.4297 23.0767 22.6109 23.4218L21.7778 23.8288C21.6738 23.6349 21.5196 23.4725 21.3313 23.3586C21.143 23.2447 20.9275 23.1835 20.7075 23.1815C20.3369 23.2159 19.9926 23.3875 19.742 23.6625C19.4913 23.9375 19.3524 24.2963 19.3524 24.6684C19.3524 25.0405 19.4913 25.3992 19.742 25.6742C19.9926 25.9493 20.3369 26.1208 20.7075 26.1553C20.9266 26.1546 21.1415 26.0947 21.3294 25.9819C21.5172 25.8691 21.6711 25.7075 21.7746 25.5144L22.6077 25.9181C22.4244 26.2603 22.1497 26.5449 21.8142 26.7401C21.4787 26.9353 21.0955 27.0334 20.7075 27.0237C20.3914 27.0395 20.0754 26.9902 19.7792 26.8788C19.483 26.7673 19.2128 26.5961 18.9856 26.3758C18.7584 26.1555 18.5789 25.8908 18.4584 25.5982C18.3378 25.3055 18.2788 24.9912 18.2849 24.6748Z" fill="white"/>
</g>
</svg>
