<svg width="47" height="47" viewBox="0 0 47 47" fill="none" xmlns="http://www.w3.org/2000/svg">
<g id="Group">
<g id="Group_2">
<g id="Group_3">
<g id="Group_4">
<path id="Vector" d="M17.2845 29.9999C17.2845 31.1199 16.9657 32.0799 16.1688 32.7199C15.372 33.3599 14.4157 33.6799 13.1407 33.6799H11.7063V37.3599H9.4751V26.1599H13.1407C14.4157 26.1599 15.5313 26.4799 16.1688 27.1199C16.8063 27.7599 17.2845 28.7199 17.2845 29.9999ZM15.0532 29.9999C15.0532 29.5199 14.8938 29.0399 14.5751 28.7199C14.2563 28.3999 13.7782 28.2399 13.1407 28.2399H11.7063V31.9199H13.1407C13.7782 31.9199 14.2563 31.7599 14.5751 31.4399C14.8938 30.9599 15.0532 30.4799 15.0532 29.9999Z" fill="#E8E3E3"/>
</g>
<g id="Group_5">
<path id="Vector_2" d="M28.6001 31.7599C28.6001 33.6799 28.122 34.9599 27.1657 35.9199C26.2095 36.8799 24.7751 37.3599 22.8626 37.3599H19.0376V26.1599H22.8626C24.6157 26.1599 25.8907 26.6399 27.0063 27.5999C28.122 28.7199 28.6001 29.9999 28.6001 31.7599ZM26.3688 31.7599C26.3688 30.6399 26.0501 29.8399 25.4126 29.1999C24.7751 28.5599 23.9782 28.2399 22.8626 28.2399H20.9501V35.5999H22.5438C25.2532 35.4399 26.3688 34.3199 26.3688 31.7599Z" fill="#E8E3E3"/>
</g>
<g id="Group_6">
<path id="Vector_3" d="M37.525 26.1599V28.0799H32.7437V30.6399H37.3656V32.5599H32.7437V37.3599H30.6719V26.1599H37.525Z" fill="#E8E3E3"/>
</g>
</g>
<g id="Group_7">
<path id="Vector_4" d="M39.4375 24.8799H7.5625C7.08437 24.8799 6.76562 24.5599 6.76562 24.0799V1.1999C6.76562 0.719902 7.08437 0.399902 7.5625 0.399902H26.6875C26.8469 0.399902 27.1656 0.559902 27.325 0.559902L40.075 13.5199C40.2344 13.6799 40.2344 13.8399 40.2344 14.1599V24.0799C40.2344 24.3999 39.9156 24.8799 39.4375 24.8799ZM8.35938 23.2799H38.6406V14.4799L26.3687 1.9999H8.35938V23.2799Z" fill="#E8E3E3"/>
</g>
<g id="Group_8">
<path id="Vector_5" d="M39.4375 46.8H7.5625C7.08437 46.8 6.76562 46.48 6.76562 46V39.6C6.76562 39.12 7.08437 38.8 7.5625 38.8H39.4375C39.9156 38.8 40.2344 39.12 40.2344 39.6V46C40.2344 46.48 39.9156 46.8 39.4375 46.8ZM8.35938 45.2H38.6406V40.4H8.35938V45.2Z" fill="#E8E3E3"/>
</g>
<g id="Group_9">
<path id="Vector_6" d="M39.4375 14.96H26.6875C26.2094 14.96 25.8906 14.64 25.8906 14.16V1.20001C25.8906 0.880014 26.05 0.560014 26.3687 0.400014C26.6875 0.240014 27.0062 0.400014 27.1656 0.560014L39.7563 13.36C39.9156 13.52 40.075 13.68 40.075 14C40.2344 14.64 39.9156 14.96 39.4375 14.96ZM27.4844 13.36H37.525L27.4844 3.12001V13.36Z" fill="#E8E3E3"/>
</g>
<g id="Group_10">
<path id="Vector_7" d="M45.8125 40.4001H1.1875C0.709375 40.4001 0.390625 40.0801 0.390625 39.6001V23.9201C0.390625 23.4401 0.709375 23.1201 1.1875 23.1201H45.8125C46.2906 23.1201 46.6094 23.4401 46.6094 23.9201V39.6001C46.6094 40.0801 46.2906 40.4001 45.8125 40.4001ZM1.98438 38.8001H45.0156V24.7201H1.98438V38.8001Z" fill="#E8E3E3"/>
</g>
</g>
</g>
</svg>
