<svg width="45" height="45" viewBox="0 0 45 45" fill="none" xmlns="http://www.w3.org/2000/svg">
<g id="noun-edit-1167408 1">
<path id="Vector" d="M16.2899 34.11H28.7099C31.6799 34.11 34.1099 31.68 34.1099 28.71V25.2C34.1099 24.705 33.7049 24.3 33.2099 24.3C32.7149 24.3 32.3099 24.705 32.3099 25.2V28.71C32.3099 30.69 30.6899 32.31 28.7099 32.31H16.2899C14.3099 32.31 12.6899 30.69 12.6899 28.71V16.29C12.6899 14.31 14.3099 12.69 16.2899 12.69H19.7999C20.2949 12.69 20.6999 12.285 20.6999 11.79C20.6999 11.295 20.2949 10.89 19.7999 10.89H16.2899C13.3199 10.89 10.8899 13.32 10.8899 16.29V28.71C10.8899 31.68 13.3199 34.11 16.2899 34.11Z" fill="#B6F09C"/>
<path id="Vector_2" d="M28.4401 12.06L19.2601 21.24C19.1701 21.33 19.0801 21.465 19.0351 21.645L17.7751 26.145C17.6401 26.64 17.9101 27.135 18.4051 27.27C18.5401 27.315 18.7201 27.315 18.9001 27.27L23.4001 26.01C23.5351 25.965 23.6701 25.875 23.8051 25.785L33.0301 16.605C34.2901 15.345 34.2901 13.32 33.0301 12.06C31.7701 10.8 29.6551 10.8 28.4401 12.06ZM19.8901 25.11L20.3401 23.58L21.4651 24.705L19.8901 25.11ZM31.6801 15.3L23.1751 23.805L21.1951 21.825L29.7001 13.32C30.2851 12.825 31.1851 12.87 31.6801 13.455C32.1301 13.995 32.1301 14.76 31.6801 15.3Z" fill="#B6F09C"/>
</g>
</svg>
