<svg width="53" height="53" viewBox="0 0 53 53" fill="none" xmlns="http://www.w3.org/2000/svg">
<g id="noun-url-1658755 1">
<path id="Vector" d="M27.2531 25.9766C26.7416 25.9766 26.4512 26.0177 26.2991 26.0452V28.6076H27.1291C28.1795 28.6076 28.8017 28.0843 28.8017 27.2712C28.8023 26.4174 28.2214 25.9903 27.2531 25.9766Z" fill="#4495C7"/>
<path id="Vector_2" d="M44.8799 14.8414L34.1267 4.12938C32.9708 2.97781 32.1514 2.63989 30.5174 2.63989H9.79652C7.51964 2.63989 6.625 3.53116 6.625 5.79944V47.0003C6.625 49.2686 7.51964 50.1599 9.79652 50.1599H43.2029C45.4804 50.1599 46.3745 49.2686 46.3745 47.0003V18.4371C46.375 16.8088 46.0353 15.9935 44.8799 14.8414ZM43.601 46.5542C43.601 47.1593 43.3625 47.3963 42.7551 47.3963H10.2449C9.63752 47.3963 9.39902 47.1587 9.39902 46.5542V36.3332H43.6004L43.601 46.5542ZM18.5728 32.2433C19.6784 32.2433 20.2868 31.4724 20.2868 29.8329V24.4885H22.3883V29.6951C22.3883 32.5601 20.9366 33.9239 18.5034 33.9239C16.1523 33.9239 14.77 32.6292 14.77 29.6677V24.488H16.8853V29.8324C16.8853 31.4307 17.4937 32.2433 18.5728 32.2433ZM30.4888 31.1556C30.7787 32.2021 31.0691 33.4144 31.2493 33.7729H29.0922C28.9401 33.511 28.7196 32.7538 28.4424 31.6102C28.1933 30.4533 27.7927 30.136 26.9357 30.1228H26.2991V33.7729H24.212V24.6126C24.8888 24.5023 25.8984 24.4199 27.0178 24.4199C28.4 24.4199 29.3689 24.6263 30.0324 25.1496C30.5858 25.5899 30.8895 26.2383 30.8895 27.0916C30.8895 28.2764 30.0462 29.089 29.2443 29.3783V29.4201C29.8941 29.6819 30.2535 30.3018 30.4888 31.1556ZM38.23 32.0094V33.7724H32.4084V24.4885H34.5242V32.0094H38.23ZM43.601 22.0106H9.39902V6.2456C9.39902 5.64052 9.63699 5.40344 10.2449 5.40344H31.3633C31.6664 5.40344 31.7862 5.52224 31.7862 5.82426V14.0141C31.7862 16.2824 32.6809 17.1736 34.9572 17.1736H43.178C43.4817 17.1736 43.601 17.2929 43.601 17.595V22.0106Z" fill="#4495C7"/>
</g>
</svg>
