<svg width="50" height="50" viewBox="0 50 50 35" fill="none" xmlns="http://www.w3.org/2000/svg">
<g id="noun-upload-1016084 1">
<g id="Group">
<g id="Group_2">
<g id="Group_3">
<path id="Vector" d="M47.8023 68.6724H36.6141C35.4154 68.6724 34.4664 69.6214 34.4664 70.8201C34.4664 72.0188 35.4154 72.9679 36.6141 72.9679H45.7045V85.7544H6.74553V72.9679H15.836C17.0347 72.9679 17.9837 72.0188 17.9837 70.8201C17.9837 69.6214 17.0347 68.6724 15.836 68.6724H4.64773C3.449 68.6724 2.5 69.6214 2.5 70.8201V87.8522C2.5 89.0509 3.449 89.9999 4.64773 89.9999H47.8523C49.051 89.9999 50 89.0509 50 87.8522V70.8201C49.9501 69.6214 49.0011 68.6724 47.8023 68.6724Z" fill="#B6F09C"/>
<path id="Vector_2" d="M18.8828 62.6287L24.1273 57.3842V78.4121C24.1273 79.6108 25.0763 80.5598 26.275 80.5598C27.4737 80.5598 28.4228 79.6108 28.4228 78.4121V57.3343L33.7172 62.6287C34.5663 63.4778 35.9149 63.4778 36.714 62.6287C37.5631 61.7796 37.5631 60.431 36.714 59.6319L27.8234 50.7412C27.4238 50.3416 26.8744 50.1418 26.325 50.1418C25.7755 50.1418 25.2261 50.3416 24.8265 50.7412L15.9359 59.6319C15.0868 60.481 15.0868 61.8295 15.9359 62.6287C16.6851 63.4279 18.0337 63.4279 18.8828 62.6287Z" fill="#B6F09C"/>
</g>
</g>
</g>
</g>
</svg>
